{"asset":{"version":"2.0","generator":"THREE.GLTFExporter r175"},"scenes":[{"name":"AuxScene","nodes":[8]}],"scene":0,"nodes":[{"mesh":0},{"mesh":1},{"mesh":2},{"mesh":3},{"matrix":[1.8130943107347373,0,-1.8130943107347375,0,0,-2.5641025641025643,0,0,1.8130943107347375,0,1.8130943107347373,0,0,0,0,1],"children":[0,1,2,3]},{"children":[4]},{"matrix":[1,0,0,0,0,1,0,0,0,0,1,0,-38.70756034074389,26.14584668324544,31.45518353008032,1],"children":[5]},{"children":[6]},{"children":[7]}],"bufferViews":[{"buffer":0,"byteOffset":0,"byteLength":72720,"target":34962,"byteStride":12},{"buffer":0,"byteOffset":72720,"byteLength":48480,"target":34962,"byteStride":8},{"buffer":0,"byteOffset":121200,"byteLength":72720,"target":34962,"byteStride":12},{"buffer":0,"byteOffset":193920,"byteLength":72720,"target":34962,"byteStride":12},{"buffer":0,"byteOffset":266640,"byteLength":48480,"target":34962,"byteStride":8},{"buffer":0,"byteOffset":315120,"byteLength":72720,"target":34962,"byteStride":12},{"buffer":0,"byteOffset":387840,"byteLength":74304,"target":34962,"byteStride":12},{"buffer":0,"byteOffset":462144,"byteLength":49536,"target":34962,"byteStride":8},{"buffer":0,"byteOffset":511680,"byteLength":74304,"target":34962,"byteStride":12},{"buffer":0,"byteOffset":585984,"byteLength":72720,"target":34962,"byteStride":12},{"buffer":0,"byteOffset":658704,"byteLength":48480,"target":34962,"byteStride":8},{"buffer":0,"byteOffset":707184,"byteLength":72720,"target":34962,"byteStride":12}],"buffers":[{"byteLength":779904,"uri":"data:application/octet-stream;base64,"}],"accessors":[{"bufferView":0,"componentType":5126,"count":6060,"max":[18.76729965209961,20.022104263305664,3.5999999046325684],"min":[-0.21005471050739288,0.15117999911308289,-0.6000000238418579],"type":"VEC3"},{"bufferView":1,"componentType":5126,"count":6060,"max":[20.022104263305664,19.624500274658203],"min":[-0.21005471050739288,-2.5999999046325684],"type":"VEC2"},{"bufferView":2,"componentType":5126,"count":6060,"max":[0.999905526638031,1,1],"min":[-1,-0.9999262690544128,-1],"type":"VEC3"},{"bufferView":3,"componentType":5126,"count":6060,"max":[14.801899909973145,15.393877029418945,3.5999999046325684],"min":[3.316499710083008,4.338520050048828,-0.6000000238418579],"type":"VEC3"},{"bufferView":4,"componentType":5126,"count":6060,"max":[15.393877029418945,14.996700286865234],"min":[3.316499710083008,-2.5999999046325684],"type":"VEC2"},{"bufferView":5,"componentType":5126,"count":6060,"max":[0.9997165203094482,1,1],"min":[-1,-0.9998254776000977,-1],"type":"VEC3"},{"bufferView":6,"componentType":5126,"count":6192,"max":[38.907859802246094,20.24258041381836,3.5999999046325684],"min":[19.930500030517578,0.3656262755393982,-0.6000000238418579],"type":"VEC3"},{"bufferView":7,"componentType":5126,"count":6192,"max":[38.907859802246094,19.844999313354492],"min":[0.3656262755393982,-2.5999999046325684],"type":"VEC2"},{"bufferView":8,"componentType":5126,"count":6192,"max":[1,1,1],"min":[-0.9999056458473206,-0.9999215602874756,-1],"type":"VEC3"},{"bufferView":9,"componentType":5126,"count":6060,"max":[35.607322692871094,15.393776893615723,3.5999999046325684],"min":[24.12190055847168,4.339009761810303,-0.6000000238418579],"type":"VEC3"},{"bufferView":10,"componentType":5126,"count":6060,"max":[35.607322692871094,14.996600151062012],"min":[4.464299201965332,-2.5999999046325684],"type":"VEC2"},{"bufferView":11,"componentType":5126,"count":6060,"max":[1,1,1],"min":[-0.9997164011001587,-0.9998260736465454,-1],"type":"VEC3"}],"materials":[{"pbrMetallicRoughness":{"baseColorFactor":[0.0006070539670588235,0.15592646369776456,0.1499597898006365,1],"metallicFactor":1,"roughnessFactor":0.2},"doubleSided":true,"extensions":{"KHR_materials_clearcoat":{"clearcoatFactor":0.1,"clearcoatRoughnessFactor":0}}}],"meshes":[{"primitives":[{"mode":4,"attributes":{"POSITION":0,"TEXCOORD_0":1,"NORMAL":2},"material":0}]},{"primitives":[{"mode":4,"attributes":{"POSITION":3,"TEXCOORD_0":4,"NORMAL":5},"material":0}]},{"primitives":[{"mode":4,"attributes":{"POSITION":6,"TEXCOORD_0":7,"NORMAL":8},"material":0}]},{"primitives":[{"mode":4,"attributes":{"POSITION":9,"TEXCOORD_0":10,"NORMAL":11},"material":0}]}],"extensionsUsed":["KHR_materials_clearcoat"]}