{"asset":{"version":"2.0","generator":"THREE.GLTFExporter r175"},"scenes":[{"name":"AuxScene","nodes":[8]}],"scene":0,"nodes":[{"mesh":0},{"mesh":1},{"mesh":2},{"mesh":3},{"matrix":[1.8130943107347373,0,-1.8130943107347375,0,0,-2.5641025641025643,0,0,1.8130943107347375,0,1.8130943107347373,0,0,0,0,1],"children":[0,1,2,3]},{"children":[4]},{"matrix":[1,0,0,0,0,1,0,0,0,0,1,0,-38.70756034074389,26.14584668324544,31.45518353008032,1],"children":[5]},{"children":[6]},{"children":[7]}],"bufferViews":[{"buffer":0,"byteOffset":0,"byteLength":15696,"target":34962,"byteStride":12},{"buffer":0,"byteOffset":15696,"byteLength":10464,"target":34962,"byteStride":8},{"buffer":0,"byteOffset":26160,"byteLength":15696,"target":34962,"byteStride":12},{"buffer":0,"byteOffset":41856,"byteLength":15696,"target":34962,"byteStride":12},{"buffer":0,"byteOffset":57552,"byteLength":10464,"target":34962,"byteStride":8},{"buffer":0,"byteOffset":68016,"byteLength":15696,"target":34962,"byteStride":12},{"buffer":0,"byteOffset":83712,"byteLength":16416,"target":34962,"byteStride":12},{"buffer":0,"byteOffset":100128,"byteLength":10944,"target":34962,"byteStride":8},{"buffer":0,"byteOffset":111072,"byteLength":16416,"target":34962,"byteStride":12},{"buffer":0,"byteOffset":127488,"byteLength":15696,"target":34962,"byteStride":12},{"buffer":0,"byteOffset":143184,"byteLength":10464,"target":34962,"byteStride":8},{"buffer":0,"byteOffset":153648,"byteLength":15696,"target":34962,"byteStride":12}],"buffers":[{"byteLength":169344,"uri":"data:application/octet-stream;base64,"}],"accessors":[{"bufferView":0,"componentType":5126,"count":1308,"max":[18.76729965209961,20.022104263305664,4.599999904632568],"min":[-0.21005471050739288,0.15117999911308289,-0.6000000238418579],"type":"VEC3"},{"bufferView":1,"componentType":5126,"count":1308,"max":[20.022104263305664,19.624500274658203],"min":[-0.21005471050739288,-3.5999999046325684],"type":"VEC2"},{"bufferView":2,"componentType":5126,"count":1308,"max":[0.9999056458473206,1,1],"min":[-1,-0.9999263882637024,-1],"type":"VEC3"},{"bufferView":3,"componentType":5126,"count":1308,"max":[14.801899909973145,15.393877029418945,4.599999904632568],"min":[3.316499710083008,4.338520050048828,-0.6000000238418579],"type":"VEC3"},{"bufferView":4,"componentType":5126,"count":1308,"max":[15.393877029418945,14.996700286865234],"min":[3.316499710083008,-3.5999999046325684],"type":"VEC2"},{"bufferView":5,"componentType":5126,"count":1308,"max":[0.9997172951698303,1,1],"min":[-1,-0.9998259544372559,-1],"type":"VEC3"},{"bufferView":6,"componentType":5126,"count":1368,"max":[38.907859802246094,20.24258041381836,4.599999904632568],"min":[19.930500030517578,0.35692098736763,-0.6000000238418579],"type":"VEC3"},{"bufferView":7,"componentType":5126,"count":1368,"max":[38.907859802246094,19.844999313354492],"min":[0.35692098736763,-3.5999999046325684],"type":"VEC2"},{"bufferView":8,"componentType":5126,"count":1368,"max":[1,1,1],"min":[-0.9999058246612549,-0.9999215602874756,-1],"type":"VEC3"},{"bufferView":9,"componentType":5126,"count":1308,"max":[35.607322692871094,15.393776893615723,4.599999904632568],"min":[24.12190055847168,4.339009761810303,-0.6000000238418579],"type":"VEC3"},{"bufferView":10,"componentType":5126,"count":1308,"max":[35.607322692871094,14.996600151062012],"min":[4.464299201965332,-3.5999999046325684],"type":"VEC2"},{"bufferView":11,"componentType":5126,"count":1308,"max":[1,1,1],"min":[-0.9997172355651855,-0.9998265504837036,-1],"type":"VEC3"}],"materials":[{"pbrMetallicRoughness":{"baseColorFactor":[0.0006070539670588235,0.15592646369776456,0.1499597898006365,1],"metallicFactor":0.46,"roughnessFactor":0.2},"doubleSided":true,"extensions":{"KHR_materials_transmission":{"transmissionFactor":0.8},"KHR_materials_volume":{"thicknessFactor":0,"attenuationColor":[1,1,1]}}}],"meshes":[{"primitives":[{"mode":4,"attributes":{"POSITION":0,"TEXCOORD_0":1,"NORMAL":2},"material":0}]},{"primitives":[{"mode":4,"attributes":{"POSITION":3,"TEXCOORD_0":4,"NORMAL":5},"material":0}]},{"primitives":[{"mode":4,"attributes":{"POSITION":6,"TEXCOORD_0":7,"NORMAL":8},"material":0}]},{"primitives":[{"mode":4,"attributes":{"POSITION":9,"TEXCOORD_0":10,"NORMAL":11},"material":0}]}],"extensionsUsed":["KHR_materials_transmission","KHR_materials_volume"]}